<?xml version="1.0" standalone="no"?>
 <!DOCTYPE svg PUBLIC "-//W3C//DTD SVG 1.1//EN" 
 "http://www.w3.org/Graphics/SVG/1.1/DTD/svg11.dtd"> 
<svg
  xmlns:svg="http://www.w3.org/2000/svg"
  xmlns="http://www.w3.org/2000/svg"
  xmlns:xlink="http://www.w3.org/1999/xlink"
  version="1.1"
  width="7.632700cm" height="11.920220cm" viewBox="0 0 76327000 119202200">
<title>SVG Picture created as mysteripad_plate-brd.svg date 2022/07/12 11:45:42 </title>
  <desc>Picture generated by PCBNEW </desc>
<g style="fill:#000000; fill-opacity:1.000000;stroke:#000000; stroke-opacity:1.000000;
stroke-linecap:round; stroke-linejoin:round;"
 transform="translate(0 0) scale(1 1)">
</g>
<g style="fill:#000000; fill-opacity:0.0; 
stroke:#000000; stroke-width:0.000000; stroke-opacity:1; 
stroke-linecap:round; stroke-linejoin:round;">
</g>
<g style="fill:#000000; fill-opacity:0.0; 
stroke:#000000; stroke-width:200000.000000; stroke-opacity:1; 
stroke-linecap:round; stroke-linejoin:round;">
<path d="M54698507 39411510
L54698507 27411504
" />
<path d="M58970548 77425003
L58749993 77425024
" />
<path d="M57749992 85649007
L57749992 90649010
" />
<path d="M58970553.999568 46548994.998542 A1000095.000000 1000095.000000 0.0 0 0 59860277.266743 46005503.136883" />
<path d="M22648500 59461511
L34648506 59461511
" />
<path d="M35648496.999992 27411503.999960 A999997.000000 999997.000000 0.0 0 0 34648506.000000 26411503.000018" />
<path d="M60748600.999996 2599800.000001 A1000000.000000 1000000.000000 0.0 0 0 59748600.000005 3599797.000000" />
<path d="M4686979.999680 100611779.000200 A1000021.000000 1000021.000000 0.0 0 0 3686979.000008 101611796.000000" />
<path d="M53698505.999976 59461506.999982 A1000007.000000 1000007.000000 0.0 0 0 54698506.999950 58461510.000000" />
<path d="M22648500.000000 45461499.000000 A1000001.000000 1000001.000000 0.0 0 0 21648499.000008 46461504.000000" />
<path d="M2598499 46461504
L2598499 58461510
" />
<path d="M21648499 27411504
L21648499 39411510
" />
<path d="M15598607.000028 16599807.999976 A1000008.000000 1000008.000000 0.0 0 0 16598607.999995 15599803.000000" />
<path d="M35650000 115611803
L35650000 103611803
" />
<path d="M60748500.000000 26411499.000000 A1000001.000000 1000001.000000 0.0 0 0 59748499.000008 27411504.000000" />
<path d="M41698500 116611511
L53698506 116611511
" />
<path d="M60749994 116612003
L72750000 116612003
" />
<path d="M35648496.999992 84561503.999960 A999997.000000 999997.000000 0.0 0 0 34648506.000000 83561503.000018" />
<path d="M10687003.005408 101611796.002081 A999897.000000 999897.000000 0.0 0 0 11686984.000000 102611796.996472" />
<path d="M40698596.000005 15599803.000012 A1000004.000000 1000004.000000 0.0 0 0 41698601.000000 16599804.000000" />
<path d="M53698505.999976 97561506.999982 A1000007.000000 1000007.000000 0.0 0 0 54698506.999950 96561510.000000" />
<path d="M41698601 16599804
L53698607 16599804
" />
<path d="M54698603.999995 3599797.000012 A1000004.000000 1000004.000000 0.0 0 0 53698607.000000 2599796.000024" />
<path d="M59860291.534074 77968492.467790 A999803.000000 999803.000000 0.0 0 0 60749994.000000 78512002.995581" />
<path d="M58749992.992002 46549093.004324 A999907.000000 999907.000000 0.0 0 0 57749993.000025 47549007.000000" />
<path d="M35649996.999995 103611802.999991 A999997.000000 999997.000000 0.0 0 0 35106500.016345 102722079.968144" />
<path d="M54698496.999992 46461503.999960 A999997.000000 999997.000000 0.0 0 0 53698506.000000 45461503.000018" />
<path d="M54698507 77511510
L54698507 65511504
" />
<path d="M22648500.000000 26411499.000000 A1000001.000000 1000001.000000 0.0 0 0 21648499.000008 27411504.000000" />
<path d="M34648505.999976 78511506.999982 A1000007.000000 1000007.000000 0.0 0 0 35648506.999950 77511510.000000" />
<path d="M54698507 58461510
L54698507 46461504
" />
<path d="M34648607.000028 16599807.999976 A1000008.000000 1000008.000000 0.0 0 0 35648607.999995 15599803.000000" />
<path d="M34563004.001624 101832356.999772 A1000096.000000 1000096.000000 0.0 0 0 35106499.999814 102722080.000363" />
<path d="M16598496.999992 27411503.999960 A999997.000000 999997.000000 0.0 0 0 15598506.000000 26411503.000018" />
<path d="M22648600.999996 2599800.000001 A1000000.000000 1000000.000000 0.0 0 0 21648600.000005 3599797.000000" />
<path d="M16598603.999995 3599797.000012 A1000004.000000 1000004.000000 0.0 0 0 15598607.000000 2599796.000024" />
<path d="M41698500 78511511
L53698506 78511511
" />
<path d="M9686983 100611795
L4686980 100611795
" />
<path d="M26562992 102611796
L11686984 102611796
" />
<path d="M57749992 109525020
L57749992 114525023
" />
<path d="M58749992.997112 70424993.005724 A1000107.000000 1000107.000000 0.0 0 0 57749993.003200 71425020.000000" />
<path d="M2598499 27411504
L2598499 39411510
" />
<path d="M72750000.000000 78512001.000000 A1000001.000000 1000001.000000 0.0 0 0 73750000.999998 77512002.000000" />
<path d="M2598499 65511504
L2598499 77511510
" />
<path d="M53698607 2599796
L41698601 2599796
" />
<path d="M34563000 101832357
L34562996 101611796
" />
<path d="M53698505.999976 116611506.999982 A1000007.000000 1000007.000000 0.0 0 0 54698506.999950 115611510.000000" />
<path d="M40698499 46461504
L40698499 58461510
" />
<path d="M72750000 45462003
L60750000 45462003
" />
<path d="M54698496.999992 65511503.999960 A999997.000000 999997.000000 0.0 0 0 53698506.000000 64511503.000018" />
<path d="M40698499 103611504
L40698499 115611510
" />
<path d="M3598500.000000 26411499.000000 A1000001.000000 1000001.000000 0.0 0 0 2598499.000008 27411504.000000" />
<path d="M40698489.000050 58461510.000100 A1000011.000000 1000011.000000 0.0 0 0 41698500.000000 59461511.000000" />
<path d="M54698496.999992 103611503.999960 A999997.000000 999997.000000 0.0 0 0 53698506.000000 102611503.000018" />
</g>
<g style="fill:#000000; fill-opacity:0.0; 
stroke:#000000; stroke-width:150000.000000; stroke-opacity:1; 
stroke-linecap:round; stroke-linejoin:round;">
<path d="M75060.000545 115836440.001091 A3299940.000000 3299940.000000 0.0 0 0 3375000.000000 119136440.000000" />
</g>
<g style="fill:#000000; fill-opacity:0.0; 
stroke:#000000; stroke-width:200000.000000; stroke-opacity:1; 
stroke-linecap:round; stroke-linejoin:round;">
<path d="M34648607 2599796
L22648601 2599796
" />
<path d="M3143470.451039 102722016.386713 A999800.000000 999800.000000 0.0 0 0 3686999.998799 101832351.000000" />
<path d="M40698499 65511504
L40698499 77511510
" />
<path d="M34649999.999700 116611799.995001 A1000100.000000 1000100.000000 0.0 0 0 35649999.994696 115611802.999999" />
<path d="M54698507 96561510
L54698507 84561504
" />
<path d="M21648499 46461504
L21648499 58461510
" />
<path d="M58970554 84649003
L58749993 84649007
" />
<path d="M54698496.999992 84561503.999960 A999997.000000 999997.000000 0.0 0 0 53698506.000000 83561503.000018" />
<path d="M58749992.992002 84649093.004324 A999907.000000 999907.000000 0.0 0 0 57749993.000025 85649007.000000" />
<path d="M58970548 115525003
L58749993 115525024
" />
<path d="M34648505.999976 59461506.999982 A1000007.000000 1000007.000000 0.0 0 0 35648506.999950 58461510.000000" />
<path d="M57749976.000265 76425023.000368 A1000024.000000 1000024.000000 0.0 0 0 58749993.000000 77425023.999976" />
<path d="M41698500 59461511
L53698506 59461511
" />
<path d="M34648505.999976 40411506.999982 A1000007.000000 1000007.000000 0.0 0 0 35648506.999950 39411510.000000" />
<path d="M59860214.310698 77968532.074971 A999797.000000 999797.000000 0.0 0 0 58970548.000000 77425003.001352" />
<path d="M28562993.000279 100611792.004325 A999908.000000 999908.000000 0.0 0 0 27562992.004608 101611796.000000" />
<path d="M72748607 2599796
L60748601 2599796
" />
<path d="M22648500 40411511
L34648506 40411511
" />
<path d="M35648496.999992 65511503.999960 A999997.000000 999997.000000 0.0 0 0 34648506.000000 64511503.000018" />
<path d="M58970553.999568 84648994.998542 A1000095.000000 1000095.000000 0.0 0 0 59860277.266743 84105503.136883" />
</g>
<g style="fill:#000000; fill-opacity:0.0; 
stroke:#000000; stroke-width:150000.000000; stroke-opacity:1; 
stroke-linecap:round; stroke-linejoin:round;">
<path d="M3375000 119136440
L72975000 119136000
" />
</g>
<g style="fill:#000000; fill-opacity:0.0; 
stroke:#000000; stroke-width:200000.000000; stroke-opacity:1; 
stroke-linecap:round; stroke-linejoin:round;">
<path d="M34563003.995391 101611796.000768 A999904.000000 999904.000000 0.0 0 0 33562996.000001 100611796.005409" />
<path d="M3598500.000000 45461499.000000 A1000001.000000 1000001.000000 0.0 0 0 2598499.000008 46461504.000000" />
<path d="M59749988.996040 54549011.000356 A1000089.000000 1000089.000000 0.0 0 0 58749993.000000 53549011.004324" />
<path d="M16598496.999992 46461503.999960 A999997.000000 999997.000000 0.0 0 0 15598506.000000 45461503.000018" />
<path d="M41698500.000000 102611499.000000 A1000001.000000 1000001.000000 0.0 0 0 40698499.000008 103611504.000000" />
<path d="M59749993 92649011
L59749993 107525019
" />
<path d="M59749988.996040 92649011.000356 A1000089.000000 1000089.000000 0.0 0 0 58749993.000000 91649011.004324" />
<path d="M58749992.997112 108524993.005724 A1000107.000000 1000107.000000 0.0 0 0 57749993.003200 109525020.000000" />
<path d="M16598507 58461510
L16598507 46461504
" />
<path d="M59749993 54549011
L59749993 69425019
" />
</g>
<g style="fill:#000000; fill-opacity:0.0; 
stroke:#000000; stroke-width:150000.000000; stroke-opacity:1; 
stroke-linecap:round; stroke-linejoin:round;">
<path d="M76274942 3375000
L76275000 115836000
" />
</g>
<g style="fill:#000000; fill-opacity:0.0; 
stroke:#000000; stroke-width:200000.000000; stroke-opacity:1; 
stroke-linecap:round; stroke-linejoin:round;">
<path d="M16598496.999992 84561503.999960 A999997.000000 999997.000000 0.0 0 0 15598506.000000 83561503.000018" />
<path d="M58749993.002783 70424993.994275 A999894.000000 999894.000000 0.0 0 0 59749993.996719 69425019.000000" />
<path d="M59748489.000050 39411510.000100 A1000011.000000 1000011.000000 0.0 0 0 60748500.000000 40411511.000000" />
<path d="M35648608 15599803
L35648608 3599797
" />
<path d="M21648499 84561504
L21648499 96561510
" />
<path d="M3598500 40411511
L15598506 40411511
" />
<path d="M15598505.999976 40411506.999982 A1000007.000000 1000007.000000 0.0 0 0 16598506.999950 39411510.000000" />
<path d="M59748499 27411504
L59748499 39411510
" />
<path d="M2598600 3599797
L2598600 15599803
" />
<path d="M57749992 71425020
L57749992 76425023
" />
<path d="M21648596.000005 15599803.000012 A1000004.000000 1000004.000000 0.0 0 0 22648601.000000 16599804.000000" />
<path d="M72750000 83562003
L60750000 83562003
" />
<path d="M41698500 40411511
L53698506 40411511
" />
</g>
<g style="fill:#000000; fill-opacity:1.0; 
stroke:#000000; stroke-width:1.000000; stroke-opacity:1; 
stroke-linecap:round; stroke-linejoin:round;">
<circle cx="10687000.000000" cy="101612003.000000" r="100000.000000" /> 
</g>
<g style="fill:#000000; fill-opacity:1.0; 
stroke:#000000; stroke-width:200000.000000; stroke-opacity:1; 
stroke-linecap:round; stroke-linejoin:round;">
</g>
<g style="fill:#000000; fill-opacity:0.0; 
stroke:#000000; stroke-width:200000.000000; stroke-opacity:1; 
stroke-linecap:round; stroke-linejoin:round;">
<path d="M3687000 101832351
L3686979 101611796
" />
<path d="M21648499 65511504
L21648499 77511510
" />
<path d="M53698505.999976 40411506.999982 A1000007.000000 1000007.000000 0.0 0 0 54698506.999950 39411510.000000" />
<path d="M40698600 3599797
L40698600 15599803
" />
</g>
<g style="fill:#000000; fill-opacity:0.0; 
stroke:#000000; stroke-width:150000.000000; stroke-opacity:1; 
stroke-linecap:round; stroke-linejoin:round;">
<path d="M76274900.000000 3375000.000000 A3300000.000000 3300000.000000 0.0 0 0 72974942.000000 75000.000267" />
</g>
<g style="fill:#000000; fill-opacity:0.0; 
stroke:#000000; stroke-width:200000.000000; stroke-opacity:1; 
stroke-linecap:round; stroke-linejoin:round;">
<path d="M40698489.000050 96561510.000100 A1000011.000000 1000011.000000 0.0 0 0 41698500.000000 97561511.000000" />
<path d="M73748608 15599803
L73748608 3599797
" />
<path d="M3598500 97561511
L15598506 97561511
" />
<path d="M3598500.000000 64511499.000000 A1000001.000000 1000001.000000 0.0 0 0 2598499.000008 65511504.000000" />
<path d="M10687003.994592 101611795.997817 A1000104.000000 1000104.000000 0.0 0 0 9686983.000000 100611796.003444" />
<path d="M72748607.000028 16599807.999976 A1000008.000000 1000008.000000 0.0 0 0 73748607.999995 15599803.000000" />
<path d="M34648506 45461503
L22648500 45461503
" />
<path d="M53698607.000028 16599807.999976 A1000008.000000 1000008.000000 0.0 0 0 54698607.999995 15599803.000000" />
<path d="M15598506 83561503
L3598500 83561503
" />
<path d="M33562996 100611795
L28562993 100611795
" />
<path d="M21648489.000050 77511510.000100 A1000011.000000 1000011.000000 0.0 0 0 22648500.000000 78511511.000000" />
<path d="M16598496.999992 65511503.999960 A999997.000000 999997.000000 0.0 0 0 15598506.000000 64511503.000018" />
<path d="M2598489.000050 96561510.000100 A1000011.000000 1000011.000000 0.0 0 0 3598500.000000 97561511.000000" />
<path d="M2599996.000005 115611803.000012 A1000004.000000 1000004.000000 0.0 0 0 3600001.000000 116611803.999999" />
</g>
<g style="fill:#000000; fill-opacity:0.0; 
stroke:#000000; stroke-width:150000.000000; stroke-opacity:1; 
stroke-linecap:round; stroke-linejoin:round;">
<path d="M75000 3375000
L75000 115836440
" />
</g>
<g style="fill:#000000; fill-opacity:0.0; 
stroke:#000000; stroke-width:200000.000000; stroke-opacity:1; 
stroke-linecap:round; stroke-linejoin:round;">
<path d="M3598500 59461511
L15598506 59461511
" />
<path d="M73750001 77507018
L73750001 46457012
" />
<path d="M35648507 39411510
L35648507 27411504
" />
<path d="M15598505.999976 59461506.999982 A1000007.000000 1000007.000000 0.0 0 0 16598506.999950 58461510.000000" />
<path d="M34648505.999976 97561506.999982 A1000007.000000 1000007.000000 0.0 0 0 35648506.999950 96561510.000000" />
<path d="M59860214.310698 116068532.074971 A999797.000000 999797.000000 0.0 0 0 58970548.000000 115525003.001352" />
<path d="M16598608 15599803
L16598608 3599797
" />
<path d="M60749994 78512003
L72750000 78512003
" />
<path d="M22648500 97561511
L34648506 97561511
" />
<path d="M53698506 83561503
L41698500 83561503
" />
<path d="M22648500 78511511
L34648506 78511511
" />
<path d="M53698506 26411503
L41698500 26411503
" />
</g>
<g style="fill:#000000; fill-opacity:0.0; 
stroke:#000000; stroke-width:150000.000000; stroke-opacity:1; 
stroke-linecap:round; stroke-linejoin:round;">
<path d="M3375000.000000 75000.000000 A3300000.000000 3300000.000000 0.0 0 0 75000.000000 3375000.000000" />
</g>
<g style="fill:#000000; fill-opacity:0.0; 
stroke:#000000; stroke-width:200000.000000; stroke-opacity:1; 
stroke-linecap:round; stroke-linejoin:round;">
<path d="M40698489.000050 39411510.000100 A1000011.000000 1000011.000000 0.0 0 0 41698500.000000 40411511.000000" />
<path d="M41698500.000000 26411499.000000 A1000001.000000 1000001.000000 0.0 0 0 40698499.000008 27411504.000000" />
<path d="M35648603.999995 3599797.000012 A1000004.000000 1000004.000000 0.0 0 0 34648607.000000 2599796.000024" />
<path d="M15598506 64511503
L3598500 64511503
" />
<path d="M53698505.999976 78511506.999982 A1000007.000000 1000007.000000 0.0 0 0 54698506.999950 77511510.000000" />
<path d="M3598500 78511511
L15598506 78511511
" />
<path d="M3604985 116611804
L34654991 116611804
" />
<path d="M3598500.000000 83561499.000000 A1000001.000000 1000001.000000 0.0 0 0 2598499.000008 84561504.000000" />
<path d="M41698500.000000 45461499.000000 A1000001.000000 1000001.000000 0.0 0 0 40698499.000008 46461504.000000" />
<path d="M15598505.999976 97561506.999982 A1000007.000000 1000007.000000 0.0 0 0 16598506.999950 96561510.000000" />
<path d="M53698506 45461503
L41698500 45461503
" />
<path d="M73750001 115607018
L73750001 84557012
" />
<path d="M60750000.000000 45462002.000000 A999998.000000 999998.000000 0.0 0 0 59860277.234769 46005503.120455" />
<path d="M15598607 2599796
L3598601 2599796
" />
<path d="M57749992 47549007
L57749992 52549010
" />
<path d="M57749989.004050 52549009.999730 A999911.000000 999911.000000 0.0 0 0 58749993.000000 53549010.995675" />
<path d="M16598507 39411510
L16598507 27411504
" />
<path d="M2598596.000005 15599803.000012 A1000004.000000 1000004.000000 0.0 0 0 3598601.000000 16599804.000000" />
<path d="M26562991.999632 102611791.995768 A1000092.000000 1000092.000000 0.0 0 0 27562991.995392 101611796.000000" />
<path d="M3598601 16599804
L15598607 16599804
" />
<path d="M21648489.000050 39411510.000100 A1000011.000000 1000011.000000 0.0 0 0 22648500.000000 40411511.000000" />
<path d="M41698500 97561511
L53698506 97561511
" />
<path d="M2600000 103611797
L2600000 115611803
" />
<path d="M54698507 115611510
L54698507 103611504
" />
<path d="M35648507 58461510
L35648507 46461504
" />
<path d="M73748603.999995 3599797.000012 A1000004.000000 1000004.000000 0.0 0 0 72748607.000000 2599796.000024" />
<path d="M41698500.000000 64511499.000000 A1000001.000000 1000001.000000 0.0 0 0 40698499.000008 65511504.000000" />
<path d="M53698506 102611503
L41698500 102611503
" />
<path d="M2598489.000050 39411510.000100 A1000011.000000 1000011.000000 0.0 0 0 3598500.000000 40411511.000000" />
<path d="M73749996.995296 84562003.000291 A1000097.000000 1000097.000000 0.0 0 0 72749999.999999 83562003.005000" />
<path d="M22648500.000000 83561499.000000 A1000001.000000 1000001.000000 0.0 0 0 21648499.000008 84561504.000000" />
<path d="M35648507 96561510
L35648507 84561504
" />
<path d="M3598600.999996 2599800.000001 A1000000.000000 1000000.000000 0.0 0 0 2598600.000005 3599797.000000" />
<path d="M16598507 77511510
L16598507 65511504
" />
</g>
<g style="fill:#000000; fill-opacity:1.0; 
stroke:#000000; stroke-width:1.000000; stroke-opacity:1; 
stroke-linecap:round; stroke-linejoin:round;">
<circle cx="27563000.000000" cy="101612003.000000" r="100000.000000" /> 
</g>
<g style="fill:#000000; fill-opacity:0.0; 
stroke:#000000; stroke-width:200000.000000; stroke-opacity:1; 
stroke-linecap:round; stroke-linejoin:round;">
<path d="M73749996.995296 46462003.000291 A1000097.000000 1000097.000000 0.0 0 0 72749999.999999 45462003.005000" />
<path d="M54698608 15599803
L54698608 3599797
" />
<path d="M15598505.999976 78511506.999982 A1000007.000000 1000007.000000 0.0 0 0 16598506.999950 77511510.000000" />
<path d="M59860291.534074 116068492.467790 A999803.000000 999803.000000 0.0 0 0 60749994.000000 116612002.995581" />
<path d="M53698506 64511503
L41698500 64511503
" />
<path d="M40698499 84561504
L40698499 96561510
" />
<path d="M2598499 84561504
L2598499 96561510
" />
<path d="M16598507 96561510
L16598507 84561504
" />
<path d="M40698499 27411504
L40698499 39411510
" />
<path d="M57749976.000265 114525023.000368 A1000024.000000 1000024.000000 0.0 0 0 58749993.000000 115525023.999976" />
<path d="M59748600 3599797
L59748600 15599803
" />
<path d="M21648489.000050 96561510.000100 A1000011.000000 1000011.000000 0.0 0 0 22648500.000000 97561511.000000" />
<path d="M2598489.000050 58461510.000100 A1000011.000000 1000011.000000 0.0 0 0 3598500.000000 59461511.000000" />
<path d="M22648601 16599804
L34648607 16599804
" />
<path d="M73748496.999992 27411503.999960 A999997.000000 999997.000000 0.0 0 0 72748506.000000 26411503.000018" />
<path d="M58970554 46549003
L58749993 46549007
" />
<path d="M72748506 26411503
L60748500 26411503
" />
<path d="M2598489.000050 77511510.000100 A1000011.000000 1000011.000000 0.0 0 0 3598500.000000 78511511.000000" />
<path d="M60748601 16599804
L72748607 16599804
" />
<path d="M34648506 83561503
L22648500 83561503
" />
<path d="M35648496.999992 46461503.999960 A999997.000000 999997.000000 0.0 0 0 34648506.000000 45461503.000018" />
<path d="M40698489.000050 115611510.000100 A1000011.000000 1000011.000000 0.0 0 0 41698500.000000 116611511.000000" />
<path d="M15598506 26411503
L3598500 26411503
" />
<path d="M41698500.000000 83561499.000000 A1000001.000000 1000001.000000 0.0 0 0 40698499.000008 84561504.000000" />
<path d="M21648600 3599797
L21648600 15599803
" />
<path d="M60748500 40411511
L72748506 40411511
" />
<path d="M41698600.999996 2599800.000001 A1000000.000000 1000000.000000 0.0 0 0 40698600.000005 3599797.000000" />
<path d="M57749989.004050 90649009.999730 A999911.000000 999911.000000 0.0 0 0 58749993.000000 91649010.995675" />
</g>
<g style="fill:#000000; fill-opacity:0.0; 
stroke:#000000; stroke-width:150000.000000; stroke-opacity:1; 
stroke-linecap:round; stroke-linejoin:round;">
<path d="M72975000.000000 119136000.000000 A3300000.000000 3300000.000000 0.0 0 0 76275000.000000 115836000.000000" />
</g>
<g style="fill:#000000; fill-opacity:0.0; 
stroke:#000000; stroke-width:200000.000000; stroke-opacity:1; 
stroke-linecap:round; stroke-linejoin:round;">
<path d="M21648489.000050 58461510.000100 A1000011.000000 1000011.000000 0.0 0 0 22648500.000000 59461511.000000" />
<path d="M54698496.999992 27411503.999960 A999997.000000 999997.000000 0.0 0 0 53698506.000000 26411503.000018" />
<path d="M72750000.000000 116612001.000000 A1000001.000000 1000001.000000 0.0 0 0 73750000.999998 115612002.000000" />
<path d="M58749993.002783 108524993.994275 A999894.000000 999894.000000 0.0 0 0 59749993.996719 107525019.000000" />
<path d="M73748507 39411510
L73748507 27411504
" />
<path d="M35648507 77511510
L35648507 65511504
" />
<path d="M3143510.058233 102722093.610049 A999800.000000 999800.000000 0.0 0 0 2600000.004705 103611797.000000" />
<path d="M15598506 45461503
L3598500 45461503
" />
<path d="M40698489.000050 77511510.000100 A1000011.000000 1000011.000000 0.0 0 0 41698500.000000 78511511.000000" />
<path d="M72748505.999976 40411506.999982 A1000007.000000 1000007.000000 0.0 0 0 73748506.999950 39411510.000000" />
<path d="M60750000.000000 83562002.000000 A999998.000000 999998.000000 0.0 0 0 59860277.234769 84105503.120455" />
<path d="M59748596.000005 15599803.000012 A1000004.000000 1000004.000000 0.0 0 0 60748601.000000 16599804.000000" />
<path d="M22648500.000000 64511499.000000 A1000001.000000 1000001.000000 0.0 0 0 21648499.000008 65511504.000000" />
</g>
<g style="fill:#000000; fill-opacity:0.0; 
stroke:#000000; stroke-width:150000.000000; stroke-opacity:1; 
stroke-linecap:round; stroke-linejoin:round;">
<path d="M72975000 75000
L3375000 75000
" />
</g>
<g style="fill:#000000; fill-opacity:0.0; 
stroke:#000000; stroke-width:200000.000000; stroke-opacity:1; 
stroke-linecap:round; stroke-linejoin:round;">
<path d="M34648506 64511503
L22648500 64511503
" />
<path d="M34648506 26411503
L22648500 26411503
" />
<g >
</g>
<g >
</g>
<g >
</g>
</g> 
</svg>
