  0
SECTION
  2
HEADER
  9
$ACADVER
  1
AC1009
  0
ENDSEC
  0
SECTION
  2
ENTITIES
  0
POLYLINE
  5
90
  8
Layer_0
  62
0
  70
1
  66
1
  10
0
  20
0
  30
0
  0
VERTEX
  5
90
  8
Layer_0
  10
301.43207
  20
389.8371
  0
VERTEX
  5
91
  8
Layer_0
  10
231.83197
  20
389.8371
  0
VERTEX
  5
92
  8
Layer_0
  10
231.75003
  20
389.83609
  0
VERTEX
  5
93
  8
Layer_0
  10
231.43478
  20
389.81311
  0
VERTEX
  5
94
  8
Layer_0
  10
231.12524
  20
389.76056
  0
VERTEX
  5
95
  8
Layer_0
  10
230.82346
  20
389.67923
  0
VERTEX
  5
96
  8
Layer_0
  10
230.53134
  20
389.56998
  0
VERTEX
  5
97
  8
Layer_0
  10
230.25079
  20
389.43365
  0
VERTEX
  5
98
  8
Layer_0
  10
229.98386
  20
389.27109
  0
VERTEX
  5
99
  8
Layer_0
  10
229.73242
  20
389.0831
  0
VERTEX
  5
9a
  8
Layer_0
  10
229.4985
  20
388.87054
  0
VERTEX
  5
9b
  8
Layer_0
  10
229.44128
  20
388.81189
  0
VERTEX
  5
9c
  8
Layer_0
  10
229.23462
  20
388.57275
  0
VERTEX
  5
9d
  8
Layer_0
  10
229.05295
  20
388.31671
  0
VERTEX
  5
9e
  8
Layer_0
  10
228.89706
  20
388.04584
  0
VERTEX
  5
9f
  8
Layer_0
  10
228.76773
  20
387.76199
  0
VERTEX
  5
a0
  8
Layer_0
  10
228.66577
  20
387.46722
  0
VERTEX
  5
a1
  8
Layer_0
  10
228.59198
  20
387.16351
  0
VERTEX
  5
a2
  8
Layer_0
  10
228.54712
  20
386.85281
  0
VERTEX
  5
a3
  8
Layer_0
  10
228.53198
  20
386.53711
  0
VERTEX
  5
a4
  8
Layer_0
  10
228.53198
  20
366.39706
  0
VERTEX
  5
a5
  8
Layer_0
  10
228.54895
  20
366.05963
  0
VERTEX
  5
a6
  8
Layer_0
  10
228.59888
  20
365.73193
  0
VERTEX
  5
a7
  8
Layer_0
  10
228.68018
  20
365.41565
  0
VERTEX
  5
a8
  8
Layer_0
  10
228.79111
  20
365.11243
  0
VERTEX
  5
a9
  8
Layer_0
  10
228.93005
  20
364.82391
  0
VERTEX
  5
aa
  8
Layer_0
  10
229.09534
  20
364.55179
  0
VERTEX
  5
ab
  8
Layer_0
  10
229.28528
  20
364.29773
  0
VERTEX
  5
ac
  8
Layer_0
  10
229.49829
  20
364.06339
  0
VERTEX
  5
ad
  8
Layer_0
  10
229.73267
  20
363.8504
  0
VERTEX
  5
ae
  8
Layer_0
  10
229.98669
  20
363.6604
  0
VERTEX
  5
af
  8
Layer_0
  10
230.25882
  20
363.49512
  0
VERTEX
  5
b0
  8
Layer_0
  10
230.5473
  20
363.3562
  0
VERTEX
  5
b1
  8
Layer_0
  10
230.85056
  20
363.24527
  0
VERTEX
  5
b2
  8
Layer_0
  10
231.16684
  20
363.164
  0
VERTEX
  5
b3
  8
Layer_0
  10
231.49454
  20
363.11401
  0
VERTEX
  5
b4
  8
Layer_0
  10
231.83197
  20
363.09705
  0
VERTEX
  5
b5
  8
Layer_0
  10
301.43201
  20
363.09705
  0
VERTEX
  5
b6
  8
Layer_0
  10
301.76947
  20
363.11401
  0
VERTEX
  5
b7
  8
Layer_0
  10
302.09717
  20
363.16397
  0
VERTEX
  5
b8
  8
Layer_0
  10
302.41345
  20
363.24524
  0
VERTEX
  5
b9
  8
Layer_0
  10
302.71671
  20
363.35614
  0
VERTEX
  5
ba
  8
Layer_0
  10
303.00522
  20
363.49512
  0
VERTEX
  5
bb
  8
Layer_0
  10
303.27734
  20
363.66037
  0
VERTEX
  5
bc
  8
Layer_0
  10
303.53137
  20
363.85034
  0
VERTEX
  5
bd
  8
Layer_0
  10
303.76575
  20
364.06332
  0
VERTEX
  5
be
  8
Layer_0
  10
303.97876
  20
364.29767
  0
VERTEX
  5
bf
  8
Layer_0
  10
304.1687
  20
364.55176
  0
VERTEX
  5
c0
  8
Layer_0
  10
304.33398
  20
364.82385
  0
VERTEX
  5
c1
  8
Layer_0
  10
304.4729
  20
365.11237
  0
VERTEX
  5
c2
  8
Layer_0
  10
304.58386
  20
365.41559
  0
VERTEX
  5
c3
  8
Layer_0
  10
304.6651
  20
365.7319
  0
VERTEX
  5
c4
  8
Layer_0
  10
304.71503
  20
366.0596
  0
VERTEX
  5
c5
  8
Layer_0
  10
304.73203
  20
366.39706
  0
VERTEX
  5
c6
  8
Layer_0
  10
304.73203
  20
386.53711
  0
VERTEX
  5
c7
  8
Layer_0
  10
304.71674
  20
386.85675
  0
VERTEX
  5
c8
  8
Layer_0
  10
304.67175
  20
387.16809
  0
VERTEX
  5
c9
  8
Layer_0
  10
304.59839
  20
387.4697
  0
VERTEX
  5
ca
  8
Layer_0
  10
304.49799
  20
387.76004
  0
VERTEX
  5
cb
  8
Layer_0
  10
304.37195
  20
388.03763
  0
VERTEX
  5
cc
  8
Layer_0
  10
304.22168
  20
388.30103
  0
VERTEX
  5
cd
  8
Layer_0
  10
304.04852
  20
388.54871
  0
VERTEX
  5
ce
  8
Layer_0
  10
303.85379
  20
388.77924
  0
VERTEX
  5
cf
  8
Layer_0
  10
303.63892
  20
388.99109
  0
VERTEX
  5
d0
  8
Layer_0
  10
303.40533
  20
389.18283
  0
VERTEX
  5
d1
  8
Layer_0
  10
303.1543
  20
389.35297
  0
VERTEX
  5
d2
  8
Layer_0
  10
302.88721
  20
389.49997
  0
VERTEX
  5
d3
  8
Layer_0
  10
302.60547
  20
389.62241
  0
VERTEX
  5
d4
  8
Layer_0
  10
302.31042
  20
389.71881
  0
VERTEX
  5
d5
  8
Layer_0
  10
302.00345
  20
389.78766
  0
VERTEX
  5
d6
  8
Layer_0
  10
301.68591
  20
389.82745
  0
VERTEX
  5
d7
  8
Layer_0
  10
301.55908
  20
389.83469
  0
VERTEX
  5
d8
  8
Layer_0
  10
301.43207
  20
389.8371
  0
SEQEND
  0
POLYLINE
  5
da
  8
Layer_0
  62
0
  70
1
  66
1
  10
0
  20
0
  30
0
  0
VERTEX
  5
da
  8
Layer_0
  10
231.95291
  20
375.45081
  0
VERTEX
  5
db
  8
Layer_0
  10
232.23242
  20
375.61884
  0
VERTEX
  5
dc
  8
Layer_0
  10
232.44659
  20
375.85596
  0
VERTEX
  5
dd
  8
Layer_0
  10
232.58368
  20
376.14453
  0
VERTEX
  5
de
  8
Layer_0
  10
232.63199
  20
376.46707
  0
VERTEX
  5
df
  8
Layer_0
  10
232.62192
  20
376.61548
  0
VERTEX
  5
e0
  8
Layer_0
  10
232.59192
  20
376.7612
  0
VERTEX
  5
e1
  8
Layer_0
  10
232.48218
  20
377.0213
  0
VERTEX
  5
e2
  8
Layer_0
  10
232.30978
  20
377.2449
  0
VERTEX
  5
e3
  8
Layer_0
  10
232.29025
  20
377.26398
  0
VERTEX
  5
e4
  8
Layer_0
  10
232.12518
  20
377.39343
  0
VERTEX
  5
e5
  8
Layer_0
  10
231.94031
  20
377.48849
  0
VERTEX
  5
e6
  8
Layer_0
  10
231.74078
  20
377.54709
  0
VERTEX
  5
e7
  8
Layer_0
  10
231.53198
  20
377.56708
  0
VERTEX
  5
e8
  8
Layer_0
  10
231.44913
  20
377.56396
  0
VERTEX
  5
e9
  8
Layer_0
  10
231.15106
  20
377.49908
  0
VERTEX
  5
ea
  8
Layer_0
  10
230.88678
  20
377.35803
  0
VERTEX
  5
eb
  8
Layer_0
  10
230.67035
  20
377.15097
  0
VERTEX
  5
ec
  8
Layer_0
  10
230.51572
  20
376.88803
  0
VERTEX
  5
ed
  8
Layer_0
  10
230.48688
  20
376.8103
  0
VERTEX
  5
ee
  8
Layer_0
  10
230.43274
  20
376.51007
  0
VERTEX
  5
ef
  8
Layer_0
  10
230.46191
  20
376.21198
  0
VERTEX
  5
f0
  8
Layer_0
  10
230.5704
  20
375.93274
  0
VERTEX
  5
f1
  8
Layer_0
  10
230.75415
  20
375.68927
  0
VERTEX
  5
f2
  8
Layer_0
  10
231.01636
  20
375.49533
  0
VERTEX
  5
f3
  8
Layer_0
  10
231.31735
  20
375.38818
  0
VERTEX
  5
f4
  8
Layer_0
  10
231.63641
  20
375.37198
  0
VERTEX
  5
f5
  8
Layer_0
  10
231.95291
  20
375.45081
  0
SEQEND
  0
POLYLINE
  5
f7
  8
Layer_0
  62
0
  70
1
  66
1
  10
0
  20
0
  30
0
  0
VERTEX
  5
f7
  8
Layer_0
  10
302.83206
  20
376.46707
  0
VERTEX
  5
f8
  8
Layer_0
  10
302.81073
  20
376.68268
  0
VERTEX
  5
f9
  8
Layer_0
  10
302.74835
  20
376.88803
  0
VERTEX
  5
fa
  8
Layer_0
  10
302.64728
  20
377.07736
  0
VERTEX
  5
fb
  8
Layer_0
  10
302.50989
  20
377.2449
  0
VERTEX
  5
fc
  8
Layer_0
  10
302.38721
  20
377.35071
  0
VERTEX
  5
fd
  8
Layer_0
  10
302.25104
  20
377.43695
  0
VERTEX
  5
fe
  8
Layer_0
  10
302.10376
  20
377.50238
  0
VERTEX
  5
ff
  8
Layer_0
  10
301.94766
  20
377.54575
  0
VERTEX
  5
100
  8
Layer_0
  10
301.84039
  20
377.56174
  0
VERTEX
  5
101
  8
Layer_0
  10
301.73206
  20
377.56708
  0
VERTEX
  5
102
  8
Layer_0
  10
301.6492
  20
377.56396
  0
VERTEX
  5
103
  8
Layer_0
  10
301.35114
  20
377.49908
  0
VERTEX
  5
104
  8
Layer_0
  10
301.08685
  20
377.35803
  0
VERTEX
  5
105
  8
Layer_0
  10
300.87042
  20
377.15097
  0
VERTEX
  5
106
  8
Layer_0
  10
300.71579
  20
376.88803
  0
VERTEX
  5
107
  8
Layer_0
  10
300.68695
  20
376.8103
  0
VERTEX
  5
108
  8
Layer_0
  10
300.63281
  20
376.51007
  0
VERTEX
  5
109
  8
Layer_0
  10
300.66199
  20
376.21198
  0
VERTEX
  5
10a
  8
Layer_0
  10
300.77051
  20
375.93274
  0
VERTEX
  5
10b
  8
Layer_0
  10
300.95425
  20
375.68927
  0
VERTEX
  5
10c
  8
Layer_0
  10
301.01505
  20
375.63287
  0
VERTEX
  5
10d
  8
Layer_0
  10
301.27167
  20
375.46802
  0
VERTEX
  5
10e
  8
Layer_0
  10
301.55829
  20
375.38086
  0
VERTEX
  5
10f
  8
Layer_0
  10
301.85776
  20
375.37424
  0
VERTEX
  5
110
  8
Layer_0
  10
302.15302
  20
375.45081
  0
VERTEX
  5
111
  8
Layer_0
  10
302.43256
  20
375.61884
  0
VERTEX
  5
112
  8
Layer_0
  10
302.64673
  20
375.85593
  0
VERTEX
  5
113
  8
Layer_0
  10
302.78381
  20
376.14453
  0
VERTEX
  5
114
  8
Layer_0
  10
302.83206
  20
376.46707
  0
SEQEND
  0
ENDSEC
  0
EOF
